<svg width="36" height="36" viewBox="0 0 36 36" fill="none" xmlns="http://www.w3.org/2000/svg">
<path d="M30.0926 28.0463C31.7083 26.1024 32.832 23.798 33.3686 21.328C33.9053 18.858 33.8392 16.295 33.1759 13.856C32.5126 11.4169 31.2716 9.17351 29.5579 7.31552C27.8441 5.45752 25.7081 4.03961 23.3305 3.18171C20.953 2.32382 18.4037 2.0512 15.8985 2.3869C13.3932 2.7226 11.0057 3.65675 8.93781 5.11032C6.86994 6.5639 5.18259 8.49414 4.01849 10.7378C2.85439 12.9814 2.24779 15.4724 2.25001 18C2.25086 21.6745 3.54572 25.2313 5.90738 28.0463L5.88488 28.0654C5.96363 28.1599 6.05363 28.2409 6.13463 28.3343C6.23588 28.4501 6.34501 28.5593 6.44963 28.6718C6.76463 29.0138 7.08863 29.3423 7.42838 29.6505C7.53188 29.745 7.63876 29.8328 7.74338 29.9228C8.10338 30.2333 8.47351 30.528 8.85713 30.8025C8.90663 30.8363 8.95163 30.8801 9.00113 30.915V30.9015C11.636 32.7557 14.7792 33.7508 18.0011 33.7508C21.223 33.7508 24.3663 32.7557 27.0011 30.9015V30.915C27.0506 30.8801 27.0945 30.8363 27.1451 30.8025C27.5276 30.5269 27.8989 30.2333 28.2589 29.9228C28.3635 29.8328 28.4704 29.7439 28.5739 29.6505C28.9136 29.3411 29.2376 29.0138 29.5526 28.6718C29.6573 28.5593 29.7653 28.4501 29.8676 28.3343C29.9475 28.2409 30.0386 28.1599 30.1174 28.0643L30.0926 28.0463ZM18 9.00001C19.0013 9.00001 19.9801 9.29692 20.8126 9.85319C21.6451 10.4095 22.294 11.2001 22.6771 12.1252C23.0603 13.0502 23.1606 14.0681 22.9652 15.0502C22.7699 16.0322 22.2877 16.9342 21.5797 17.6422C20.8717 18.3502 19.9697 18.8324 18.9876 19.0277C18.0056 19.2231 16.9877 19.1228 16.0627 18.7396C15.1376 18.3565 14.347 17.7076 13.7907 16.8751C13.2344 16.0426 12.9375 15.0638 12.9375 14.0625C12.9375 12.7198 13.4709 11.4322 14.4203 10.4828C15.3697 9.53337 16.6573 9.00001 18 9.00001ZM9.00788 28.0463C9.0274 26.5691 9.6277 25.159 10.6789 24.1211C11.7301 23.0831 13.1477 22.5008 14.625 22.5H21.375C22.8523 22.5008 24.2699 23.0831 25.3211 24.1211C26.3723 25.159 26.9726 26.5691 26.9921 28.0463C24.5248 30.2696 21.3213 31.5001 18 31.5001C14.6787 31.5001 11.4752 30.2696 9.00788 28.0463Z" fill="#6E47AD"/>
</svg>
